<svg xmlns="http://www.w3.org/2000/svg" width="20" height="22.857" viewBox="0 0 20 22.857">
    <path id="Icon_awesome-podcast" data-name="Icon awesome-podcast" d="M11.939,21.811c-.23.849-1.1,1.046-1.939,1.046s-1.709-.2-1.939-1.046a32.53,32.53,0,0,1-.918-5.929c0-1.569,1.39-1.953,2.857-1.953s2.857.384,2.857,1.953A32.562,32.562,0,0,1,11.939,21.811ZM7,12.882a4.286,4.286,0,1,1,5.994,0,.269.269,0,0,0,.028.41,2.97,2.97,0,0,1,.948,1.132.266.266,0,0,0,.422.084,6.429,6.429,0,1,0-8.79,0,.266.266,0,0,0,.422-.084,2.97,2.97,0,0,1,.948-1.132A.268.268,0,0,0,7,12.882ZM10,0A10,10,0,0,0,5.613,18.991a.268.268,0,0,0,.381-.282c-.106-.692-.194-1.382-.241-1.979a.269.269,0,0,0-.12-.2,7.857,7.857,0,1,1,8.623.072c-.045.627-.137,1.366-.251,2.108a.268.268,0,0,0,.381.282A10,10,0,0,0,10,0Zm0,7.143A2.857,2.857,0,1,0,12.857,10,2.857,2.857,0,0,0,10,7.143Z" fill="#fff"/>
</svg>
