<svg xmlns="http://www.w3.org/2000/svg" width="239" height="72.667" viewBox="0 0 239 72.667">
    <g id="guides" transform="translate(-52.877 -52.857)">
        <g id="Logo" transform="translate(52.877 53.029)">
            <path id="Path_307" data-name="Path 307" d="M260.307,65.716H229.1c-4.951,0-8.059.664-10.068,5.881.167-.578,2.673-11.067,2.673-11.067,2.506-7.7,7.968-7.3,14.513-7.3h27Z" transform="translate(-141.737 -53.227)" fill="#008ccc"/>
            <path id="Path_308" data-name="Path 308" d="M251.1,105.394H219.9c-4.15,0-7.932.652-10.068,5.881.167-.578,2.674-11.067,2.674-11.067,2.506-7.7,7.968-7.3,14.513-7.3h27Z" transform="translate(-136.814 -74.446)" fill="#008ccc"/>
            <path id="Path_309" data-name="Path 309" d="M138.78,132.283c-6.545,0-12.008-.4-14.513,7.3,0,0-.932,3.9-1.7,7.075-1.742,4.068-3.372,4.914-10.054,4.914H71.978c-3.364,0-7.784,1.785-9.854,4.438,0,0-6.775,8.741-9.247,11.99,3.767-3.885,6.136-3.942,15.735-3.942h36.123c7.2-.111,13.286.9,15.3-6.262,0,0,1.439-6.795,1.971-8.218,1.8-4.1,5.77-4.809,9.659-4.809h31.206l2.911-12.485Z" transform="translate(-52.877 -95.504)" fill="#008ccc"/>
            <path id="Path_310" data-name="Path 310" d="M330.645,53.227,319.43,102.451H305.751l11.4-49.225Z" transform="translate(-188.114 -53.227)" fill="#008ccc"/>
            <path id="Path_311" data-name="Path 311" d="M129.117,53.227,91.174,102.452H106.36l5.032-7.013h12.391l-1.625,7.013h13.679l11.215-49.225Zm-9.663,30.452L130.82,68.056l-4.313,15.623Z" transform="translate(-73.358 -53.227)" fill="#008ccc"/>
        </g>
        <g id="American" transform="translate(204.175 52.857)">
            <path id="Path_312" data-name="Path 312" d="M388.893,65.192h-1.1l-1.478-3.6H380.6l-1.5,3.6h-.991l5.131-12.037h.522Zm-2.939-4.47-2.505-6.14-2.5,6.14Z" transform="translate(-378.109 -53.016)" fill="#fff"/>
            <path id="Path_313" data-name="Path 313" d="M417.618,65.232h-.939l-1.026-10.419-4.436,10.628h-.087L406.677,54.8l-.992,10.436h-.939l1.218-12h1.078l4.123,10.245L415.3,53.23h1.1Z" transform="translate(-392.355 -53.056)" fill="#fff"/>
            <path id="Path_314" data-name="Path 314" d="M445.506,65.232h-6.644v-12h6.523v.852H439.8v4.349h5.27v.852H439.8v5.1h5.7Z" transform="translate(-410.6 -53.056)" fill="#fff"/>
            <path id="Path_315" data-name="Path 315" d="M466.735,65.232h-1.2l-3.549-5.566h-1.531v5.566h-.939v-12H462.3c2.261,0,3.74,1.217,3.74,3.218a3.146,3.146,0,0,1-2.957,3.183Zm-2.574-10.645a3.744,3.744,0,0,0-2.383-.5h-1.322v4.732h1.322a3.853,3.853,0,0,0,2.383-.488,2.123,2.123,0,0,0,.887-1.878A2.076,2.076,0,0,0,464.161,54.587Z" transform="translate(-421.646 -53.056)" fill="#fff"/>
            <path id="Path_316" data-name="Path 316" d="M480.549,65.232h-.939v-12h.939Z" transform="translate(-432.392 -53.056)" fill="#fff"/>
            <path id="Path_317" data-name="Path 317" d="M498.262,63.38a5.735,5.735,0,0,1-4.436,1.861A6.192,6.192,0,1,1,498.175,54.6l-.609.7a4.871,4.871,0,0,0-3.74-1.583,4.958,4.958,0,0,0-5.044,5.305,5.156,5.156,0,0,0,8.87,3.757Z" transform="translate(-436.758 -52.857)" fill="#fff"/>
            <path id="Path_318" data-name="Path 318" d="M523.811,65.192h-1.1l-1.478-3.6h-5.722l-1.5,3.6h-.991l5.131-12.037h.522Zm-2.939-4.47-2.5-6.14-2.505,6.14Z" transform="translate(-450.263 -53.016)" fill="#fff"/>
            <path id="Path_319" data-name="Path 319" d="M550.764,65.232h-.852l-8-10.523V65.232h-.939v-12h.939l7.914,10.349V53.23h.939Z" transform="translate(-465.208 -53.056)" fill="#fff"/>
        </g>
        <g id="Enterprise" transform="translate(201.339 71.618)">
            <path id="Path_320" data-name="Path 320" d="M378.658,105.562h-6.644v-12h6.522v.852h-5.583v4.349h5.27v.852h-5.27v5.1h5.705Z" transform="translate(-372.014 -93.387)" fill="#fff"/>
            <path id="Path_321" data-name="Path 321" d="M402.459,105.562h-.852l-8-10.523v10.523h-.939v-12h.939l7.914,10.349V93.561h.939Z" transform="translate(-383.059 -93.387)" fill="#fff"/>
            <path id="Path_322" data-name="Path 322" d="M426.739,94.413h-3.566v11.149h-.939V94.413h-3.566v-.852h8.071Z" transform="translate(-396.965 -93.387)" fill="#fff"/>
            <path id="Path_323" data-name="Path 323" d="M447.611,105.562h-6.644v-12h6.523v.852h-5.583v4.349h5.271v.852h-5.271v5.1h5.705Z" transform="translate(-408.89 -93.387)" fill="#fff"/>
            <path id="Path_324" data-name="Path 324" d="M468.84,105.562h-1.2L464.091,100H462.56v5.566h-.939v-12H464.4c2.261,0,3.74,1.217,3.74,3.217a3.147,3.147,0,0,1-2.957,3.183Zm-2.574-10.645a3.743,3.743,0,0,0-2.383-.5H462.56v4.732h1.322a3.851,3.851,0,0,0,2.383-.488,2.122,2.122,0,0,0,.887-1.878A2.075,2.075,0,0,0,466.265,94.917Z" transform="translate(-419.936 -93.387)" fill="#fff"/>
            <path id="Path_325" data-name="Path 325" d="M487.228,99.127a4.047,4.047,0,0,1-2.766.835h-1.809v5.6h-.94v-12h2.748a4.045,4.045,0,0,1,2.766.835,3.1,3.1,0,0,1,0,4.731Zm-.731-4.175a3.336,3.336,0,0,0-2-.539h-1.844v4.7H484.5a3.333,3.333,0,0,0,2-.539,2.226,2.226,0,0,0,.835-1.809A2.2,2.2,0,0,0,486.5,94.952Z" transform="translate(-430.682 -93.387)" fill="#fff"/>
            <path id="Path_326" data-name="Path 326" d="M508.042,105.562h-1.2L503.293,100h-1.531v5.566h-.94v-12h2.783c2.261,0,3.74,1.217,3.74,3.217a3.147,3.147,0,0,1-2.957,3.183Zm-2.574-10.645a3.745,3.745,0,0,0-2.383-.5h-1.322v4.732h1.322a3.854,3.854,0,0,0,2.383-.488,2.123,2.123,0,0,0,.887-1.878A2.076,2.076,0,0,0,505.468,94.917Z" transform="translate(-440.901 -93.387)" fill="#fff"/>
            <path id="Path_327" data-name="Path 327" d="M522.6,105.562h-.939v-12h.939Z" transform="translate(-452.047 -93.387)" fill="#fff"/>
            <path id="Path_328" data-name="Path 328" d="M533.611,105.571a4.126,4.126,0,0,1-3.67-2.157l.73-.522a3.528,3.528,0,0,0,3.027,1.861,2.564,2.564,0,0,0,2.8-2.522c0-1.565-1.6-2.157-2.3-2.435s-1.478-.609-1.966-.87a3.123,3.123,0,0,1-1.739-2.783c0-1.739,1.513-2.957,3.531-2.957a3.786,3.786,0,0,1,3.131,1.565l-.661.574a3.009,3.009,0,0,0-2.539-1.3c-1.391,0-2.5.73-2.5,2.087a2.4,2.4,0,0,0,1.791,2.261c.852.365,2.192.922,2.47,1.078a3.179,3.179,0,0,1,1.739,2.783C537.454,104.058,535.941,105.571,533.611,105.571Z" transform="translate(-456.473 -93.187)" fill="#fff"/>
            <path id="Path_329" data-name="Path 329" d="M559,105.562h-6.644v-12h6.523v.852h-5.583v4.349h5.27v.852h-5.27v5.1H559Z" transform="translate(-468.459 -93.387)" fill="#fff"/>
        </g>
        <g id="Institute" transform="translate(198.48 90.059)">
            <path id="Path_330" data-name="Path 330" d="M366.806,145.2h-.939v-12h.939Z" transform="translate(-365.867 -133.027)" fill="#fff"/>
            <path id="Path_331" data-name="Path 331" d="M385.432,145.2h-.852l-8-10.523V145.2h-.939v-12h.939l7.914,10.349V133.2h.939Z" transform="translate(-371.094 -133.027)" fill="#fff"/>
            <path id="Path_332" data-name="Path 332" d="M405.125,145.211a4.126,4.126,0,0,1-3.67-2.157l.73-.522a3.528,3.528,0,0,0,3.027,1.861,2.564,2.564,0,0,0,2.8-2.522c0-1.566-1.6-2.157-2.3-2.435s-1.478-.609-1.966-.869a3.123,3.123,0,0,1-1.739-2.783c0-1.739,1.513-2.957,3.531-2.957a3.784,3.784,0,0,1,3.131,1.565l-.661.574a3.009,3.009,0,0,0-2.54-1.3c-1.391,0-2.5.731-2.5,2.087a2.394,2.394,0,0,0,1.791,2.261c.852.365,2.191.922,2.47,1.078a3.181,3.181,0,0,1,1.739,2.783C408.969,143.7,407.455,145.211,405.125,145.211Z" transform="translate(-384.9 -132.827)" fill="#fff"/>
            <path id="Path_333" data-name="Path 333" d="M428.759,134.053h-3.566V145.2h-.939V134.053h-3.566V133.2h8.071Z" transform="translate(-395.185 -133.027)" fill="#fff"/>
            <path id="Path_334" data-name="Path 334" d="M443.925,145.2h-.939v-12h.939Z" transform="translate(-407.11 -133.027)" fill="#fff"/>
            <path id="Path_335" data-name="Path 335" d="M458.025,134.053h-3.566V145.2h-.939V134.053h-3.566V133.2h8.071Z" transform="translate(-410.837 -133.027)" fill="#fff"/>
            <path id="Path_336" data-name="Path 336" d="M480.588,140.367a5.372,5.372,0,0,1-.853,3.566,4.67,4.67,0,0,1-6.818,0,5.371,5.371,0,0,1-.852-3.566V133.2H473v7.253a4.752,4.752,0,0,0,.609,2.817,3.534,3.534,0,0,0,5.427,0,4.755,4.755,0,0,0,.609-2.817V133.2h.939Z" transform="translate(-422.662 -133.027)" fill="#fff"/>
            <path id="Path_337" data-name="Path 337" d="M503.222,134.053h-3.566V145.2h-.939V134.053h-3.566V133.2h8.071Z" transform="translate(-435.008 -133.027)" fill="#fff"/>
            <path id="Path_338" data-name="Path 338" d="M524.093,145.2h-6.644v-12h6.523v.852h-5.583V138.4h5.271v.852h-5.271v5.1h5.705Z" transform="translate(-446.933 -133.027)" fill="#fff"/>
        </g>
    </g>
</svg>
