<?xml version="1.0" encoding="UTF-8"?> <svg xmlns="http://www.w3.org/2000/svg" width="145.488" height="74" viewBox="0 0 145.488 74"><g id="Logo" transform="translate(-52.877 -53.227)"><path id="Path_1" data-name="Path 1" d="M261.163,65.975H229.31c-5.053,0-8.226.678-10.277,6,.171-.59,2.729-11.3,2.729-11.3,2.558-7.857,8.134-7.451,14.814-7.451h27.558Z" transform="translate(-87.256)" fill="#fff"></path><path id="Path_2" data-name="Path 2" d="M251.957,105.653H220.1c-4.236,0-8.1.666-10.277,6,.171-.59,2.729-11.3,2.729-11.3,2.558-7.857,8.133-7.451,14.814-7.451h27.558Z" transform="translate(-82.422 -20.837)" fill="#fff"></path><path id="Path_3" data-name="Path 3" d="M140.563,132.283c-6.681,0-12.257-.406-14.814,7.451,0,0-.952,3.981-1.733,7.222-1.778,4.153-3.442,5.016-10.263,5.016H72.374c-3.434,0-7.945,1.822-10.058,4.53,0,0-6.915,8.923-9.439,12.239,3.845-3.965,6.263-4.024,16.061-4.024h36.872c7.345-.114,13.562.915,15.614-6.392,0,0,1.469-6.936,2.011-8.388,1.837-4.189,5.89-4.909,9.86-4.909h31.853l2.971-12.745Z" transform="translate(0 -41.514)" fill="#fff"></path><path id="Path_4" data-name="Path 4" d="M331.161,53.227l-11.448,50.246H305.751l11.642-50.246Z" transform="translate(-132.796 0)" fill="#fff"></path><path id="Path_5" data-name="Path 5" d="M129.9,53.227l-38.73,50.246h15.5l5.136-7.158h12.648l-1.659,7.158h13.963l11.448-50.246Zm-9.863,31.084,11.6-15.947-4.4,15.947Z" transform="translate(-20.112 0)" fill="#fff"></path></g></svg> 