<svg xmlns="http://www.w3.org/2000/svg" width="20" height="20" viewBox="0 0 20 20">
    <path id="Icon_awesome-rss-square" data-name="Icon awesome-rss-square" d="M17.857,2.25H2.143A2.143,2.143,0,0,0,0,4.393V20.107A2.143,2.143,0,0,0,2.143,22.25H17.857A2.143,2.143,0,0,0,20,20.107V4.393A2.143,2.143,0,0,0,17.857,2.25ZM5,19.393A2.143,2.143,0,1,1,7.143,17.25,2.143,2.143,0,0,1,5,19.393Zm7.033,0H10.5a.511.511,0,0,1-.511-.475,7.145,7.145,0,0,0-6.657-6.657.511.511,0,0,1-.475-.511V10.217a.51.51,0,0,1,.535-.51,9.7,9.7,0,0,1,9.15,9.15.51.51,0,0,1-.51.535Zm4.6,0H15.1a.512.512,0,0,1-.51-.493A11.737,11.737,0,0,0,3.35,7.661a.512.512,0,0,1-.493-.51V5.618a.51.51,0,0,1,.526-.51A14.3,14.3,0,0,1,17.142,18.867a.51.51,0,0,1-.51.526Z" transform="translate(0 -2.25)" fill="#fff"/>
</svg>
