<svg xmlns="http://www.w3.org/2000/svg" width="21.919" height="16.442" viewBox="0 0 21.919 16.442">
    <path id="Icon_ionic-logo-youtube" data-name="Icon ionic-logo-youtube" d="M21.776,8.131a3.328,3.328,0,0,0-3.168-3.477c-2.372-.111-4.791-.154-7.262-.154h-.771c-2.466,0-4.89.043-7.262.154A3.336,3.336,0,0,0,.15,8.139C.043,9.664,0,11.188,0,12.712s.043,3.048.146,4.577a3.339,3.339,0,0,0,3.164,3.489c2.492.116,5.048.167,7.647.163s5.151-.043,7.647-.163a3.34,3.34,0,0,0,3.168-3.489c.1-1.529.15-3.053.146-4.581S21.879,9.659,21.776,8.131ZM8.863,16.912V8.5l6.208,4.2Z" transform="translate(0 -4.5)" fill="#fff"/>
</svg>
